<?xml version="1.0"?>
<svg xmlns="http://www.w3.org/2000/svg" xmlns:xlink="http://www.w3.org/1999/xlink" version="1.1" viewBox="0 0 210 210" width="50px" height="50px"><g fill="none" fill-rule="nonzero" stroke="none" stroke-width="1" stroke-linecap="butt" stroke-linejoin="miter" stroke-miterlimit="10" stroke-dasharray="" stroke-dashoffset="0" font-family="none" font-weight="none" font-size="none" text-anchor="none" style="mix-blend-mode: normal"><path d="M0,210v-210h210v210z" fill="none"/><g fill="#ffffff"><g id="surface1"><path d="M210.2625,43.8375c-7.76016,3.44531 -16.07812,5.75859 -24.82266,6.80859c8.925,-5.34844 15.78281,-13.81406 18.99844,-23.8875c-8.33437,4.93828 -17.60391,8.53125 -27.43125,10.46719c-7.875,-8.4 -19.09687,-13.63359 -31.51641,-13.63359c-23.85469,0 -43.19766,19.32656 -43.19766,43.18125c0,3.37969 0.39375,6.67734 1.13203,9.84375c-35.89688,-1.80469 -67.70859,-18.99844 -89.02031,-45.13359c-3.72422,6.39844 -5.84063,13.81406 -5.84063,21.72188c0,14.97891 7.6125,28.20234 19.21172,35.9625c-7.0875,-0.22969 -13.74844,-2.18203 -19.57266,-5.41406c0,0.18047 0,0.36094 0,0.54141c0,20.93438 14.89688,38.37422 34.63359,42.36094c-3.60937,0.98438 -7.43203,1.50938 -11.36953,1.50938c-2.78906,0 -5.49609,-0.2625 -8.1375,-0.7875c5.5125,17.14453 21.45938,29.6625 40.34297,30.00703c-14.76563,11.58281 -33.38672,18.47344 -53.63203,18.47344c-3.49453,0 -6.92344,-0.19687 -10.28672,-0.60703c19.09687,12.27187 41.80312,19.40859 66.19922,19.40859c79.43906,0 122.88281,-65.80547 122.88281,-122.86641c0,-1.87031 -0.04922,-3.75703 -0.11484,-5.59453c8.43281,-6.08672 15.75,-13.69922 21.54141,-22.36172z"/></g></g></g></svg>
